<svg width="118" height="118" viewBox="0 0 118 118" fill="none" xmlns="http://www.w3.org/2000/svg">
<path d="M86.1122 61.593C86.6514 61.6692 87.1702 61.8509 87.639 62.1279C88.1078 62.4048 88.5175 62.7714 88.8444 63.2068C89.1713 63.6423 89.4092 64.1379 89.5444 64.6653C89.6795 65.1928 89.7094 65.7417 89.6321 66.2807C88.5942 73.4614 85.2288 80.1031 80.0523 85.1868C74.8759 90.2705 68.1743 93.5153 60.976 94.4233V98.8211C60.976 99.9194 60.5398 100.973 59.7632 101.749C58.9866 102.526 57.9333 102.962 56.835 102.962C55.7367 102.962 54.6834 102.526 53.9068 101.749C53.1302 100.973 52.6939 99.9194 52.6939 98.8211V94.4233C45.4967 93.5138 38.7964 90.2684 33.6209 85.1849C28.4454 80.1014 25.0804 73.4605 24.042 66.2807C23.886 65.1934 24.1684 64.0887 24.8269 63.2096C25.4855 62.3305 26.4663 61.749 27.5536 61.593C28.6409 61.4371 29.7456 61.7194 30.6247 62.378C31.5038 63.0365 32.0853 64.0173 32.2413 65.1046C33.0977 71.0164 36.0549 76.4218 40.5715 80.3311C45.088 84.2405 50.8615 86.3922 56.835 86.3922C62.8084 86.3922 68.582 84.2405 73.0985 80.3311C77.615 76.4218 80.5723 71.0164 81.4287 65.1046C81.5059 64.5662 81.6883 64.0483 81.9657 63.5804C82.243 63.1125 82.6098 62.7039 83.0451 62.3778C83.4804 62.0517 83.9757 61.8146 84.5027 61.6799C85.0297 61.5452 85.5739 61.5157 86.1122 61.593ZM56.835 20.1411C60.2265 20.1411 63.4276 20.9568 66.2518 22.4021C64.3773 23.7206 62.904 25.5318 61.995 27.6356C61.0859 29.7393 60.7765 32.0535 61.101 34.3222C61.4255 36.5909 62.3711 38.7256 63.8334 40.4902C65.2957 42.2548 67.2176 43.5805 69.3865 44.3207L70.9518 44.859C71.5499 45.0631 72.0933 45.4013 72.5405 45.8477C72.9877 46.2942 73.3267 46.837 73.5317 47.4347L74.0659 49.0001C74.7699 51.0706 75.9874 52.8595 77.5403 54.2468V61.5516C77.5403 67.043 75.3588 72.3095 71.4758 76.1924C67.5928 80.0754 62.3264 82.2569 56.835 82.2569C51.3436 82.2569 46.0771 80.0754 42.1941 76.1924C38.3112 72.3095 36.1297 67.043 36.1297 61.5516V40.8463C36.1297 35.355 38.3112 30.0885 42.1941 26.2055C46.0771 22.3225 51.3436 20.1411 56.835 20.1411ZM85.8224 16C86.5971 16 87.3563 16.2173 88.0136 16.6273C88.671 17.0372 89.2002 17.6233 89.541 18.319L89.7398 18.8035L90.2782 20.3688C90.8463 22.0343 91.7618 23.56 92.964 24.8451C94.1662 26.1301 95.6277 27.145 97.2517 27.8227L98.0178 28.1126L99.5831 28.6468C100.358 28.9112 101.038 29.3996 101.535 30.0502C102.033 30.7007 102.326 31.4842 102.379 32.3016C102.431 33.1189 102.24 33.9335 101.829 34.6421C101.418 35.3508 100.807 35.9218 100.072 36.2829L99.5831 36.4817L98.0178 37.02C96.3523 37.5882 94.8266 38.5036 93.5415 39.7059C92.2565 40.9081 91.2416 42.3695 90.5639 43.9935L90.274 44.7596L89.7398 46.3249C89.4749 47.0999 88.9861 47.7789 88.3353 48.2761C87.6845 48.7732 86.9009 49.0663 86.0836 49.1182C85.2663 49.17 84.4519 48.9784 83.7435 48.5674C83.0351 48.1565 82.4644 47.5447 82.1037 46.8094L81.9049 46.3249L81.3666 44.7596C80.7984 43.0942 79.8829 41.5684 78.6807 40.2834C77.4785 38.9984 76.017 37.9834 74.3931 37.3057L73.627 37.0159L72.0617 36.4817C71.2865 36.2172 70.6071 35.7288 70.1096 35.0783C69.612 34.4277 69.3184 33.6442 69.2661 32.8269C69.2138 32.0095 69.4051 31.195 69.8157 30.4863C70.2263 29.7776 70.8379 29.2067 71.573 28.8456L72.0617 28.6468L73.627 28.1084C75.2924 27.5403 76.8182 26.6248 78.1032 25.4226C79.3882 24.2204 80.4032 22.7589 81.0809 21.1349L81.3707 20.3688L81.9049 18.8035C82.1839 17.986 82.7116 17.2762 83.4141 16.7735C84.1165 16.2708 84.9586 16.0003 85.8224 16Z" fill="#4598C5"/>
</svg>
